<?xml version="1.0" encoding="utf-8"?>
<!-- Generator: Adobe Illustrator 23.0.6, SVG Export Plug-In . SVG Version: 6.00 Build 0)  -->
<svg version="1.1" id="Layer_1" xmlns="http://www.w3.org/2000/svg" xmlns:xlink="http://www.w3.org/1999/xlink" x="0px" y="0px"
	 width="864px" height="864px" viewBox="0 0 864 864" enable-background="new 0 0 864 864" xml:space="preserve">
<g>
	<path d="M821.1949,614.8401c-0.0492-0.0232-0.0984-0.046-0.1478-0.0692c-17.5145-8.0881-30.0135-4.9405-37.4157-0.8752
		c-10.4772,5.7531-17.5582,17.0209-19.428,30.9158c-2.0208,15.0541,8.2581,25.486,19.4572,27.9868
		c9.327,2.0931,17.485-1.616,19.8427-9.0255c2.8452-8.9625-2.4808-16.5321-7.1791-23.2117c-3.4207-4.8602-6.65-9.4529-5.4698-12.928
		c1.3268-3.9084,3.4221-6.4123,6.4038-7.6548c6.9712-2.9026,17.0389,1.5018,19.9326,2.9369
		c9.9527,4.8491,16.3137,12.4157,18.9096,22.4874c2.6684,10.3562-0.7391,22.1846-9.1176,31.6433
		c-14.3908,16.2479-40.436,23.2178-71.4598,19.1264c-42.3104-5.5803-85.8952-29.973-121.214-57.7474
		c14.5471,3.8309,33.3355,5.758,57.6505,5.2787c63.7166-1.2537,60.4883-52.7036,21.142-56.0482
		c-39.3428-3.3511-61.0723,24.0573-94.3727,30.2925c-2.3857,0.4462-4.7461,0.3953-7.0259,0.0154L439.8483,449.1955l349.4631-343.186
		c2.6761,14.9884,12.4852,29.6163,21.8875,40.8616C808.7253,120.576,835.2706,66.5902,846,42.1584
		c-24.931,9.9704-78.7772,37.4436-104.8534,33.3793c9.7635,9.3893,25.767,19.8359,40.3861,22.696L432,441.4882L82.4673,98.2337
		c14.6191-2.86,30.6225-13.3067,40.3861-22.696C96.7771,79.602,42.931,52.1288,18,42.1584
		c10.7293,24.4318,37.2746,78.4176,34.8012,104.7127c9.4023-11.2454,19.2113-25.8733,21.8874-40.8616l349.463,343.186
		L252.297,617.9633c-2.2798,0.3799-4.6402,0.4308-7.0259-0.0154c-33.3003-6.2352-55.0298-33.6436-94.3727-30.2925
		c-39.3464,3.3445-42.5746,54.7945,21.142,56.0482c24.315,0.4792,43.1034-1.4478,57.6505-5.2787
		c-35.3188,27.7744-78.9037,52.1672-121.2141,57.7474c-31.0238,4.0914-57.0689-2.8785-71.4597-19.1264
		c-8.3785-9.4587-11.786-21.2871-9.1176-31.6433c2.5959-10.0717,8.9569-17.6382,18.9096-22.4874
		c2.8937-1.4351,12.9614-5.8395,19.9325-2.9369c2.9818,1.2426,5.077,3.7464,6.4038,7.6548c1.1802,3.4751-2.049,8.0677-5.4698,12.928
		c-4.6983,6.6796-10.0242,14.2492-7.1791,23.2117c2.3577,7.4095,10.5156,11.1185,19.8427,9.0255
		c11.1992-2.5008,21.478-12.9326,19.4572-27.9868c-1.8698-13.8949-8.9507-25.1628-19.4279-30.9158
		c-7.4022-4.0652-19.9012-7.2129-37.4158,0.8752c-0.0493,0.0231-0.0985,0.046-0.1478,0.0692
		c-8.913,4.1534-20.2065,12.4869-23.7571,28.658c-0.2491,1.1367-5.9012,28.0389,11.866,47.0866
		c15.0202,16.1037,41.5671,21.475,78.9015,15.9661c31.2542-4.6093,59.3205-16.1586,83.039-29.7317
		c-16.3327,18.9885-35.403,47.5974-41.5476,82.5818c-4.3743,24.8962-1.2657,42.7699,9.2405,53.1224
		c12.427,12.2457,30.5433,8.9557,31.3089,8.8101c10.8925-2.0807,16.6802-9.4887,19.625-15.3801
		c0.0163-0.0327,0.0326-0.0651,0.0489-0.0975c5.7373-11.5787,3.8594-20.0051,1.2735-25.0363
		c-3.6594-7.1205-11.0742-12.0691-20.3427-13.5761c-10.0426-1.6295-17.2162,5.0609-19.0963,12.5135
		c-1.5731,6.2061,0.7608,11.737,5.6782,13.4517c5.9484,2.0693,11.1149-1.3574,15.6734-4.3806
		c3.3174-2.2008,6.4517-4.2785,8.7565-3.4248c2.5928,0.9604,4.2308,2.4091,5.0077,4.4288
		c1.8153,4.7207-1.3184,11.3808-2.3326,13.2921c-3.4294,6.5746-8.6126,10.6945-15.4039,12.2478
		c-6.9833,1.5959-14.8405-0.903-21.0197-6.6866c-10.6142-9.934-14.8027-27.5007-11.4931-48.198
		c4.5138-28.2262,21.647-56.9604,40.8927-80.098c-2.8326,9.6692-4.4679,22.2139-4.5938,38.5034
		c-0.3314,42.685,34.1765,41.4684,37.1388,15.185c2.9669-26.28-14.9854-41.3329-18.5484-63.7446
		c-0.3201-2.0153-0.1222-3.9911,0.3839-5.8565c0.6841-0.6974,1.3675-1.3839,2.0503-2.0641
		c13.537-9.4445,25.0415-19.0375,34.1571-27.3901c-1.8199,6.6974-2.8184,15.3096-2.7798,26.4121
		c0.1016,29.7453,24.1373,28.6296,25.9963,10.2917c1.8624-18.3361-10.7637-28.6846-13.4204-44.2723
		c-0.0612-0.3571-0.0853-0.7104-0.0966-1.0623L432,456.9028l172.5887,169.4888c-0.0112,0.3518-0.0354,0.7052-0.0966,1.0623
		c-2.6567,15.5877-15.2828,25.9362-13.4204,44.2723c1.859,18.3378,25.8947,19.4536,25.9963-10.2917
		c0.0386-11.1025-0.9599-19.7147-2.7798-26.4121c9.1155,8.3526,20.6201,17.9456,34.157,27.3901
		c0.6827,0.6802,1.3662,1.3666,2.0503,2.0641c0.5061,1.8654,0.704,3.8412,0.3839,5.8565
		c-3.563,22.4117-21.5153,37.4646-18.5485,63.7446c2.9623,26.2834,37.4702,27.5,37.1388-15.185
		c-0.1259-16.2896-1.7613-28.8342-4.5938-38.5034c19.2457,23.1376,36.379,51.8718,40.8928,80.098
		c3.3095,20.6973-0.8789,38.264-11.4932,48.198c-6.1791,5.7836-14.0363,8.2825-21.0197,6.6866
		c-6.7912-1.5533-11.9745-5.6732-15.4039-12.2478c-1.0142-1.9113-4.1478-8.5714-2.3326-13.2921
		c0.777-2.0197,2.415-3.4684,5.0078-4.4288c2.3048-0.8537,5.4391,1.224,8.7565,3.4248c4.5585,3.0233,9.725,6.45,15.6735,4.3806
		c4.9175-1.7147,7.2513-7.2456,5.6782-13.4517c-1.8801-7.4527-9.0536-14.1431-19.0963-12.5135
		c-9.2686,1.507-16.6833,6.4556-20.3427,13.5761c-2.5859,5.0313-4.4639,13.4576,1.2734,25.0363
		c0.0164,0.0324,0.0327,0.0648,0.049,0.0975c2.9448,5.8914,8.7324,13.2993,19.625,15.3801
		c0.7656,0.1456,18.8819,3.4356,31.3089-8.8101c10.5062-10.3525,13.6147-28.2262,9.2405-53.1224
		c-6.1447-34.9844-25.2149-63.5934-41.5477-82.5818c23.7186,13.5731,51.7848,25.1224,83.0391,29.7317
		c37.3344,5.509,63.8813,0.1376,78.9015-15.9661c17.7672-19.0477,12.1151-45.95,11.866-47.0866
		C841.4015,627.327,830.108,618.9935,821.1949,614.8401z"/>
	<g>
		<path d="M309.8962,411.606v-43.4853c0-2.6264-2.0678-4.93-4.4244-4.93H153.7789c-2.6264,0-4.93,2.3036-4.93,4.93
			c0,2.448,2.3499,4.6775,4.93,4.6775h20.352v161.2998h-20.352c-2.5795,0-4.6775,2.2116-4.6775,4.9299
			c0,2.6227,2.0548,4.6776,4.6775,4.6776h92.2795c2.6227,0,4.6775-2.0548,4.6775-4.6776c0-2.7183-2.098-4.9299-4.6775-4.9299
			h-20.0989V456.482h48.2887v31.2236c0,3.0412,1.6956,4.93,4.4244,4.93c2.5128,0,5.183-1.7277,5.183-4.93v-71.043
			c0-2.5801-2.4702-4.93-5.183-4.93c-2.4807,0-4.4244,2.1653-4.4244,4.93v30.2125h-48.2887v-74.0768h74.5823v38.8077
			c0,3.1332,1.7968,4.93,4.93,4.93C307.6025,416.536,309.8962,414.9935,309.8962,411.606z M216.6051,372.7983v161.2998h-32.8667
			V372.7983H216.6051z"/>
		<path d="M333.9042,327.6539h70.0313c2.3604,0,4.6775-2.3172,4.6775-4.6775c0-2.5801-2.2295-4.93-4.6775-4.93h-36.235
			l20.9896-53.0921h55.7766l21.484,53.0921h-24.3443c-2.2332,0-4.93,2.1992-4.93,4.93c0,2.3172,2.4881,4.6775,4.93,4.6775h93.2911
			c2.3604,0,4.6769-2.3172,4.6769-4.6775c0-2.5801-2.2289-4.93-4.6769-4.93h-13.4795l-68.074-167.916
			c-0.3111-1.9024-1.9116-2.9912-4.4059-2.9912h-20.7316c-2.3042,0-3.7745,0.9252-4.6386,2.943l-11.3771,31.097l-0.0352,0.1679
			c-0.0006,0.0025-0.0105,0.0475-0.0704,0.1074l-0.092,0.0914l-30.8921,76.7254l-0.0426,0.1864
			c-0.0006,0.0024-0.0105,0.0475-0.0704,0.1074l-0.092,0.0913l-23.9067,59.39h-23.0851c-2.5795,0-4.6775,2.2116-4.6775,4.93
			C329.2267,325.4682,331.4124,327.6539,333.9042,327.6539z M421.8049,183.1545l9.6254-26.4078h14.3004l65.2223,161.2998h-34.5376
			L421.8049,183.1545z M392.7318,255.3468l23.5981-59.3603l24.0845,59.3603H392.7318z"/>
		<path d="M551.8354,596.7532c2.3604,0,4.6775-2.5671,4.6775-5.183c0-2.7325-2.4282-4.4244-4.6775-4.4244h-66.9976
			c-2.0524,0-3.527,1.1586-4.3806,3.4344l-42.6304,108.1971l-40.8959-108.7199c-0.8623-2.0135-2.1332-2.9116-4.1201-2.9116h-79.1333
			c-3.1788,0-4.93,1.5715-4.93,4.4244c0,2.5801,1.5246,5.183,4.93,5.183h30.465V758.053h-31.2236c-3.0412,0-4.93,1.9863-4.93,5.183
			c0,2.1307,1.5425,4.4244,4.93,4.4244h73.0657c2.6264,0,4.93-2.0677,4.93-4.4244c0-2.9548-2.1196-5.183-4.93-5.183H353.75V618.6058
			l53.1434,143.3624c0.8808,2.0554,2.9103,3.164,4.3732,3.164l7.8724,0.0013c2.2357,0.0623,3.977-1.082,4.8528-3.1857
			l55.9161-144.492V758.053h-21.1106c-2.2993,0-4.6775,1.9388-4.6775,5.183c0,2.3153,2.2295,4.4244,4.6775,4.4244h93.0381
			c2.448,0,4.6775-2.1091,4.6775-4.4244c0-3.2443-2.3782-5.183-4.6775-5.183h-19.3403V596.7532H551.8354z M523.1406,596.7532
			V758.053h-33.3728V596.7532H523.1406z M432.8382,712.4148l-16.9466,43.363h-0.8993l-59.1949-159.0246h33.542L432.8382,712.4148z"
			/>
		<path d="M769.9221,534.0981h-13.3412l-59.6819-77.4124c24.6838-7.9335,38.2602-24.5419,38.2602-46.8493
			c0-46.6456-45.3055-46.6456-89.1191-46.6456h-76.0995c-2.6227,0-4.6776,2.0548-4.6776,4.6775c0,2.327,2.0005,4.93,4.6776,4.93
			h19.3409v161.2998h-19.3409c-2.798,0-4.6776,1.9813-4.6776,4.9299c0,2.6227,2.0549,4.6776,4.6776,4.6776h92.027
			c2.7183,0,4.9299-2.098,4.9299-4.6776c0-3.3875-2.5554-4.9299-4.9299-4.9299h-20.352v-67.0272l57.3228,74.9323
			c1.5456,1.5462,2.4771,1.7153,3.4381,1.7153c0.1315,0,0.2642-0.0031,0.3994-0.0068l67.1463-0.0062
			c2.3276,0,4.9305-2.0005,4.9305-4.6776C774.8527,535.9424,772.346,534.0981,769.9221,534.0981z M678.2747,411.1005
			c0,33.0648-22.6487,40.1009-36.6591,41.2848v-79.5481C665.431,374.4309,678.2747,393.6465,678.2747,411.1005z M657.4166,462.044
			c11.6876,0,20.2174-0.7154,29.3188-2.4659l57.6283,74.52h-39.3571l-55.1593-72.0541H657.4166z M669.7109,452.3223
			c12.0599-8.8396,18.1707-22.695,18.1707-41.2218c0-14.2054-7.2502-28.9731-18.6157-38.1917
			c37.3356,2.1517,56.2864,8.7156,56.2864,36.9276c0,27.6547-25.8264,36.7177-36.9338,39.3318
			C681.3011,450.9341,675.2242,451.9507,669.7109,452.3223z M632.0081,372.7983v161.2998h-32.8667V372.7983H632.0081z"/>
	</g>
</g>
</svg>
