<?xml version="1.0" encoding="iso-8859-1"?>
<!-- Generator: Adobe Illustrator 18.0.0, SVG Export Plug-In . SVG Version: 6.00 Build 0)  -->
<!DOCTYPE svg PUBLIC "-//W3C//DTD SVG 1.1//EN" "http://www.w3.org/Graphics/SVG/1.1/DTD/svg11.dtd">
<svg version="1.1" id="Capa_1" xmlns="http://www.w3.org/2000/svg" xmlns:xlink="http://www.w3.org/1999/xlink" x="0px" y="0px"
	 viewBox="0 0 310.738 310.738" style="enable-background:new 0 0 310.738 310.738;" xml:space="preserve">
<g>
	<path d="M159.246,76.602c15.475,0,28.02-12.545,28.02-28.02c0-11.274-6.661-20.986-16.26-25.432
		c2.289-2.452,3.678-5.623,3.678-9.094C174.684,6.293,167.772,0,159.246,0c-8.526,0-15.438,6.293-15.438,14.057
		c0,3.471,1.388,6.642,3.678,9.094c-9.598,4.446-16.26,14.158-16.26,25.432C131.226,64.057,143.771,76.602,159.246,76.602z"/>
	<path d="M232.73,163.77l-21.353-85.271c-1.376-5.495-6.094-9.26-11.442-9.702l-8.143,0c-6.773,10.865-18.826,18.115-32.545,18.115
		c-13.719,0-25.771-7.249-32.544-18.114l-15.338,0c-5.411,0.488-10.133,4.382-11.406,9.966l-19.44,85.271
		c-1.31,5.747,1.451,11.464,6.379,14.16v11.293c-5.46,2.387-9.278,7.829-9.278,14.169v34.983c0,8.327,6.399,15.491,14.716,15.883
		c8.88,0.418,16.212-6.658,16.212-15.446v-35.42c0-6.34-3.819-11.781-9.278-14.169v-11.284c3.122-1.71,5.526-4.697,6.379-8.44
		l14.669-64.344v31.608l-8.867,66.2c-0.364,2.673,0.446,5.373,2.22,7.406c1.745,1.998,4.256,3.153,6.904,3.191v81.013
		c0,8.327,6.399,15.491,14.716,15.883c8.88,0.418,16.212-6.658,16.212-15.446v-76.288c0-2.847,2.308-5.155,5.155-5.155l0,0
		c2.847,0,5.155,2.308,5.155,5.155v75.851c0,8.327,6.399,15.491,14.716,15.883c8.88,0.418,16.212-6.658,16.212-15.446v-81.45
		c2.648-0.038,5.16-1.193,6.904-3.191c1.775-2.032,2.584-4.732,2.22-7.406l-8.866-66.2v-25.83l14.733,58.832
		c1.466,5.853,6.719,9.76,12.491,9.76c1.036,0,2.09-0.126,3.14-0.389C230.264,177.671,234.459,170.673,232.73,163.77z"/>
</g>
<g>
</g>
<g>
</g>
<g>
</g>
<g>
</g>
<g>
</g>
<g>
</g>
<g>
</g>
<g>
</g>
<g>
</g>
<g>
</g>
<g>
</g>
<g>
</g>
<g>
</g>
<g>
</g>
<g>
</g>
</svg>
